<svg xmlns="http://www.w3.org/2000/svg" viewBox="0 0 32 40" x="0px" y="0px"><title>hexagon</title><g data-name="80-hexagon"><path d="M15.9951,30.8779a1.0084,1.0084,0,0,1-.501-.1338L3.499,23.81A1.0034,1.0034,0,0,1,3,22.9434l.0049-13.878A.9993.9993,0,0,1,3.5039,8.2l12-6.9434a1.0032,1.0032,0,0,1,1.002-.0009L28.501,8.19A1.0034,1.0034,0,0,1,29,9.0566l-.0049,13.878a.9993.9993,0,0,1-.499.8652l-12,6.9434A1,1,0,0,1,15.9951,30.8779ZM5,22.3662l10.9951,6.3565,11-6.3653L27,9.6338,16.0049,3.2773l-11,6.3653Z"/></g><text x="0" y="47" fill="#000000" font-size="5px" font-weight="bold" font-family="'Helvetica Neue', Helvetica, Arial-Unicode, Arial, Sans-serif">Created by Ricki Tri Putra</text><text x="0" y="52" fill="#000000" font-size="5px" font-weight="bold" font-family="'Helvetica Neue', Helvetica, Arial-Unicode, Arial, Sans-serif">from the Noun Project</text></svg>