<svg xmlns="http://www.w3.org/2000/svg" xmlns:xlink="http://www.w3.org/1999/xlink" xmlns:serif="http://www.serif.com/" viewBox="0 0 24 30" version="1.1" xml:space="preserve" style="" x="0px" y="0px" fill-rule="evenodd" clip-rule="evenodd" stroke-linejoin="round" stroke-miterlimit="2"><g><path d="M12.375,1.35c-0.232,-0.133 -0.518,-0.133 -0.75,0l-8.66,5c-0.232,0.134 -0.375,0.382 -0.375,0.65l-0,10c-0,0.268 0.143,0.516 0.375,0.65l8.66,5c0.232,0.133 0.518,0.133 0.75,-0l8.66,-5c0.232,-0.134 0.375,-0.382 0.375,-0.65l0,-10c0,-0.268 -0.143,-0.516 -0.375,-0.65l-8.66,-5Zm-0.375,1.516l7.91,4.567c0,0 0,9.134 0,9.134c0,-0 -7.91,4.567 -7.91,4.567c-0,-0 -7.91,-4.567 -7.91,-4.567c-0,-0 -0,-9.134 -0,-9.134l7.91,-4.567Z"/></g><text x="0" y="39" fill="#000000" font-size="5px" font-weight="bold" font-family="'Helvetica Neue', Helvetica, Arial-Unicode, Arial, Sans-serif">Created by Rolas Design</text><text x="0" y="44" fill="#000000" font-size="5px" font-weight="bold" font-family="'Helvetica Neue', Helvetica, Arial-Unicode, Arial, Sans-serif">from the Noun Project</text></svg>